<svg width="109" height="24" viewBox="0 0 109 24" fill="none" xmlns="http://www.w3.org/2000/svg">
<path d="M31.2266 5.70312V14.1094H37.4062V16H29.3359V5.70312H31.2266ZM38.1016 16L43.3984 5.70312L48.6953 16H46.3672L43.3984 10.1562L40.3359 16H38.1016ZM50.9766 9.60156L53.4922 5.71094H55.7344L51.9141 11.7969V16H50.0156V11.7969L46.1953 5.71094H48.5469L50.9766 9.60156ZM56.4297 5.70312L64.5 5.71094V7.60938H58.3203V9.90625H64.5V11.7969H58.3203V14.1094H64.5V16H56.4297V5.70312ZM73.7031 8.75781C73.7031 9.3099 73.5651 9.82031 73.2891 10.2891C73.013 10.7578 72.6432 11.125 72.1797 11.3906L73.8594 16H71.9688L70.4375 11.7969H67.0859V16H65.1953V5.70312L70.6562 5.71094C71.4948 5.71094 72.2109 6.01042 72.8047 6.60938C73.4036 7.20312 73.7031 7.91927 73.7031 8.75781ZM67.0859 7.60938V9.90625H70.6641C70.9818 9.90625 71.2526 9.79427 71.4766 9.57031C71.7005 9.34635 71.8125 9.07552 71.8125 8.75781C71.8125 8.4401 71.7005 8.16927 71.4766 7.94531C71.2526 7.72135 70.9818 7.60938 70.6641 7.60938H67.0859ZM85.3906 7.60938C84.474 7.60938 83.6875 7.92708 83.0312 8.5625C82.3802 9.19792 82.0547 9.96354 82.0547 10.8594C82.0599 11.7552 82.388 12.5208 83.0391 13.1562C83.6901 13.7917 84.474 14.1094 85.3906 14.1094C86.1146 14.1094 86.7734 13.8958 87.3672 13.4688L88.7266 14.8359C87.7578 15.612 86.6458 16 85.3906 16C84.6771 16 83.9948 15.8646 83.3438 15.5938C82.6927 15.3229 82.1328 14.9583 81.6641 14.5C81.1953 14.0417 80.8203 13.4974 80.5391 12.8672C80.2578 12.2318 80.1172 11.5651 80.1172 10.8672V10.8594V10.8516C80.1172 10.1536 80.2578 9.48958 80.5391 8.85938C80.8203 8.22396 81.1953 7.67708 81.6641 7.21875C82.1328 6.75521 82.6927 6.38802 83.3438 6.11719C83.9948 5.84635 84.6771 5.71094 85.3906 5.71094C86.6458 5.71094 87.7578 6.09896 88.7266 6.875L87.3672 8.24219C86.7786 7.82031 86.1198 7.60938 85.3906 7.60938ZM95.8438 11.8438V5.70312H97.7422V11.8438C97.7422 12.4062 97.6328 12.9453 97.4141 13.4609C97.1953 13.9714 96.8984 14.4141 96.5234 14.7891C96.1536 15.1589 95.7109 15.4531 95.1953 15.6719C94.6849 15.8906 94.1484 16 93.5859 16C93.0234 16 92.4844 15.8906 91.9688 15.6719C91.4583 15.4531 91.0156 15.1589 90.6406 14.7891C90.2708 14.4141 89.9766 13.9714 89.7578 13.4609C89.5391 12.9453 89.4297 12.4062 89.4297 11.8438V5.70312H91.3203V11.8438C91.3203 12.4688 91.5417 13.0026 91.9844 13.4453C92.4271 13.888 92.9609 14.1094 93.5859 14.1094C94.2109 14.1094 94.7422 13.888 95.1797 13.4453C95.6224 13.0026 95.8438 12.4688 95.8438 11.8438ZM98.4453 5.71094H108.133V7.60938H104.234V16H102.344V7.60938H98.4453V5.71094Z" fill="white"/>
<path d="M20.88 10.9988C20.04 10.9988 19.26 11.3188 18.67 11.9088L11 19.5888V23.9988H15.41L23.09 16.3288C23.68 15.7388 24 14.9588 24 14.1188C24 12.3988 22.6 10.9988 20.88 10.9988ZM21.67 14.9088L14.59 21.9988H13V20.4088L20.09 13.3288C20.3 13.1188 20.58 12.9988 20.88 12.9988C21.5 12.9988 22 13.4988 22 14.1188C22 14.4188 21.88 14.6988 21.67 14.9088Z" fill="white"/>
<path d="M2.46 17.0688C2.16 15.0688 2 13.0188 2 10.9988C2 8.98876 2.15 6.95876 2.46 4.96876C2.65 3.68876 3.67 2.65876 4.93 2.45876C8.93 1.84876 13.04 1.84876 17.03 2.45876C18.33 2.65876 19.35 3.67876 19.55 5.00876C19.75 6.30876 19.88 7.62876 19.94 8.93876H21.95C21.88 7.52876 21.74 6.10876 21.53 4.70876C21.19 2.50876 19.51 0.808757 17.33 0.478757C13.14 -0.161243 8.82 -0.161243 4.63 0.488757C2.48 0.818757 0.81 2.49876 0.48 4.66876C0.16 6.75876 0 8.88876 0 10.9988C0 13.1188 0.16 15.2688 0.49 17.3688C0.82 19.5188 2.51 21.1888 4.71 21.5288C6.12 21.7388 7.57 21.8788 9 21.9488V19.9388C7.67 19.8788 6.33 19.7488 5.01 19.5488C3.68 19.3488 2.66 18.3488 2.46 17.0688Z" fill="white"/>
<path d="M8.5 6.12876C8.19 5.95876 7.81 5.95876 7.5 6.13876C7.19 6.30876 7 6.63876 7 6.99876V14.9988C7 15.3588 7.19 15.6888 7.5 15.8588C7.65 15.9588 7.83 15.9988 8 15.9988C8.17 15.9988 8.34 15.9588 8.5 15.8688L15.5 11.8688C15.81 11.6888 16 11.3588 16 10.9988C16 10.6388 15.81 10.3088 15.5 10.1288L8.5 6.12876ZM9 13.2788V8.71876L12.98 10.9988L9 13.2788Z" fill="#307EF4"/>
</svg>
