<svg width="25" height="25" viewBox="0 0 25 25" fill="none" xmlns="http://www.w3.org/2000/svg">
<path d="M10.4141 21.3062C10.5922 21.6146 10.8483 21.8707 11.1568 22.0488C11.4652 22.2269 11.8151 22.3206 12.1713 22.3206C12.5275 22.3206 12.8774 22.2269 13.1859 22.0488C13.4943 21.8707 13.7505 21.6146 13.9286 21.3062" stroke="#99A1AF" stroke-width="2.02917" stroke-linecap="round" stroke-linejoin="round"/>
<path d="M3.31195 15.5497C3.17941 15.6949 3.09195 15.8756 3.06019 16.0696C3.02844 16.2637 3.05376 16.4628 3.13309 16.6428C3.21242 16.8227 3.34233 16.9757 3.50701 17.0832C3.6717 17.1906 3.86407 17.2479 4.06072 17.2481H20.2941C20.4907 17.2481 20.6831 17.1911 20.8479 17.0838C21.0127 16.9766 21.1428 16.8237 21.2223 16.6439C21.3018 16.4641 21.3274 16.265 21.2959 16.0709C21.2644 15.8768 21.1772 15.6961 21.0449 15.5507C19.6955 14.1597 18.2649 12.6814 18.2649 8.1168C18.2649 6.5023 17.6235 4.95392 16.4819 3.81229C15.3403 2.67066 13.7919 2.0293 12.1774 2.0293C10.5629 2.0293 9.01451 2.67066 7.87288 3.81229C6.73125 4.95392 6.08989 6.5023 6.08989 8.1168C6.08989 12.6814 4.65831 14.1597 3.31195 15.5497Z" stroke="#99A1AF" stroke-width="2.02917" stroke-linecap="round" stroke-linejoin="round"/>
</svg>
