<svg width="24" height="24" viewBox="0 0 24 24" fill="none" xmlns="http://www.w3.org/2000/svg">
<path d="M7.63919 14.3598C7.01919 14.0698 6.30919 13.9398 5.54919 14.0198C3.81919 14.2098 2.34919 15.5598 2.05919 17.2798C1.57919 20.0498 3.94919 22.4198 6.70919 21.9398C8.42919 21.6398 9.77919 20.1798 9.96919 18.4498C10.0492 17.6898 9.91919 16.9898 9.62919 16.3598L11.9992 13.9998L14.3592 16.3598C14.0692 16.9798 13.9392 17.6898 14.0192 18.4498C14.2092 20.1798 15.5592 21.6498 17.2792 21.9398C20.0492 22.4198 22.4092 20.0498 21.9292 17.2898C21.6292 15.5698 20.1692 14.2198 18.4392 14.0298C17.6792 13.9498 16.9792 14.0798 16.3492 14.3698L13.9992 11.9998L21.5892 4.40977C22.4792 3.51977 21.8492 1.99977 20.5892 1.99977L20.5792 1.99977C20.2092 1.99977 19.8492 2.14977 19.5792 2.40977L7.63919 14.3598ZM7.99919 17.9998C7.99919 19.0998 7.10919 19.9998 5.99919 19.9998C4.88919 19.9998 3.99919 19.0998 3.99919 17.9998C3.99919 16.8998 4.88919 15.9998 5.99919 15.9998C7.10919 15.9998 7.99919 16.8998 7.99919 17.9998ZM19.9992 17.9998C19.9992 19.0998 19.1092 19.9998 17.9992 19.9998C16.8892 19.9998 15.9992 19.0998 15.9992 17.9998C15.9992 16.8998 16.8892 15.9998 17.9992 15.9998C19.1092 15.9998 19.9992 16.8998 19.9992 17.9998ZM12.4992 11.9998C12.4992 12.2798 12.2792 12.4998 11.9992 12.4998C11.7192 12.4998 11.4992 12.2798 11.4992 11.9998C11.4992 11.7198 11.7192 11.4998 11.9992 11.4998C12.2792 11.4998 12.4992 11.7198 12.4992 11.9998ZM2.40919 4.40977L8.99919 10.9998L10.9992 8.99977L4.40919 2.40977C4.14919 2.14977 3.78919 1.99977 3.40919 1.99977L3.39919 1.99977C2.14919 1.99977 1.51919 3.51977 2.40919 4.40977Z" fill="#474752"/>
</svg>
