<svg width="16" height="16" viewBox="0 0 16 16" fill="none" xmlns="http://www.w3.org/2000/svg">
<g opacity="0.7">
<path d="M0 8C0 3.58172 3.58172 0 8 0V0C12.4183 0 16 3.58172 16 8V8C16 12.4183 12.4183 16 8 16V16C3.58172 16 0 12.4183 0 8V8Z" fill="black"/>
<path d="M6.09375 10.8333C5.89323 10.8333 5.72163 10.7699 5.57896 10.6431C5.43629 10.5163 5.36483 10.3636 5.36458 10.1852V5.97222C5.26129 5.97222 5.17476 5.94111 5.105 5.87889C5.03524 5.81667 5.00024 5.73975 5 5.64815C4.99976 5.55654 5.03476 5.47963 5.105 5.41741C5.17524 5.35519 5.26177 5.32407 5.36458 5.32407H6.82292C6.82292 5.23225 6.85792 5.15534 6.92792 5.09333C6.99792 5.03133 7.08444 5.00022 7.1875 5H8.64583C8.74913 5 8.83578 5.03111 8.90578 5.09333C8.97578 5.15556 9.01066 5.23247 9.01042 5.32407H10.4687C10.572 5.32407 10.6587 5.35519 10.7287 5.41741C10.7987 5.47963 10.8336 5.55654 10.8333 5.64815C10.8331 5.73975 10.7981 5.81677 10.7283 5.87921C10.6586 5.94165 10.572 5.97265 10.4687 5.97222V10.1852C10.4687 10.3634 10.3974 10.5161 10.2547 10.6431C10.1121 10.7701 9.94035 10.8335 9.73958 10.8333H6.09375ZM7.44745 9.4437C7.5172 9.38191 7.55208 9.305 7.55208 9.21296V6.94444C7.55208 6.85262 7.51708 6.77571 7.44708 6.7137C7.37708 6.6517 7.29056 6.62059 7.1875 6.62037C7.08444 6.62015 6.99792 6.65127 6.92792 6.7137C6.85792 6.77614 6.82292 6.85306 6.82292 6.94444V9.21296C6.82292 9.30478 6.85792 9.3818 6.92792 9.44403C6.99792 9.50625 7.08444 9.53725 7.1875 9.53704C7.29056 9.53682 7.3772 9.50571 7.44745 9.4437ZM8.90578 9.4437C8.97554 9.38191 9.01042 9.305 9.01042 9.21296V6.94444C9.01042 6.85262 8.97542 6.77571 8.90542 6.7137C8.83542 6.6517 8.74889 6.62059 8.64583 6.62037C8.54278 6.62015 8.45625 6.65127 8.38625 6.7137C8.31625 6.77614 8.28125 6.85306 8.28125 6.94444V9.21296C8.28125 9.30478 8.31625 9.3818 8.38625 9.44403C8.45625 9.50625 8.54278 9.53725 8.64583 9.53704C8.74889 9.53682 8.83554 9.50571 8.90578 9.4437Z" fill="white"/>
</g>
</svg>
