<svg width="24" height="24" viewBox="0 0 24 24" fill="none" xmlns="http://www.w3.org/2000/svg">
<path d="M20 13.7949H17.45L15.45 15.8462H20V19.9487H4V15.8462H8.55L6.55 13.7949H4C3.46957 13.7949 2.96086 14.011 2.58579 14.3957C2.21071 14.7804 2 15.3021 2 15.8462V19.9487C2 20.4928 2.21071 21.0145 2.58579 21.3992C2.96086 21.7839 3.46957 22 4 22H20C20.5304 22 21.0391 21.7839 21.4142 21.3992C21.7893 21.0145 22 20.4928 22 19.9487V15.8462C22 15.3021 21.7893 14.7804 21.4142 14.3957C21.0391 14.011 20.5304 13.7949 20 13.7949Z" fill="#4F505A"/>
<path d="M11.292 15.0318C11.3849 15.1273 11.4952 15.2031 11.6167 15.2548C11.7382 15.3065 11.8685 15.3331 12 15.3331C12.1315 15.3331 12.2618 15.3065 12.3833 15.2548C12.5048 15.2031 12.6151 15.1273 12.708 15.0318L16.708 10.9292C16.8902 10.7358 16.991 10.4767 16.9887 10.2078C16.9864 9.93887 16.8812 9.68163 16.6958 9.49147C16.5104 9.30131 16.2596 9.19344 15.9974 9.1911C15.7352 9.18877 15.4826 9.29215 15.294 9.47897L13 11.8318V3.02564C13 2.75362 12.8946 2.49275 12.7071 2.3004C12.5196 2.10806 12.2652 2 12 2C11.7348 2 11.4804 2.10806 11.2929 2.3004C11.1054 2.49275 11 2.75362 11 3.02564V11.8318L8.707 9.48C8.61475 9.38204 8.50441 9.30391 8.3824 9.25015C8.2604 9.1964 8.12918 9.16811 7.9964 9.16692C7.86362 9.16574 7.73194 9.19169 7.60905 9.24326C7.48615 9.29483 7.3745 9.37099 7.2806 9.46729C7.18671 9.56359 7.11246 9.6781 7.06218 9.80415C7.0119 9.9302 6.9866 10.0653 6.98775 10.2014C6.9889 10.3376 7.01649 10.4722 7.0689 10.5973C7.12131 10.7225 7.19749 10.8356 7.293 10.9303L11.292 15.0318Z" fill="#4F505A"/>
<path d="M17 18.9231C17.5523 18.9231 18 18.4639 18 17.8974C18 17.331 17.5523 16.8718 17 16.8718C16.4477 16.8718 16 17.331 16 17.8974C16 18.4639 16.4477 18.9231 17 18.9231Z" fill="#4F505A"/>
</svg>
