<svg width="28" height="28" viewBox="0 0 28 28" fill="none" xmlns="http://www.w3.org/2000/svg">
<g clip-path="url(#clip0_3492_22937)">
<path d="M20.9974 15.1665C20.9974 19.0282 17.8591 22.1665 13.9974 22.1665C10.1357 22.1665 6.9974 19.0282 6.9974 15.1665C6.9974 11.3048 10.1357 8.1665 13.9974 8.1665V12.8332L19.8307 6.99984L13.9974 1.1665V5.83317C8.84073 5.83317 4.66406 10.0098 4.66406 15.1665C4.66406 20.3232 8.84073 24.4998 13.9974 24.4998C19.1541 24.4998 23.3307 20.3232 23.3307 15.1665H20.9974Z" fill="#474752"/>
<path d="M11.7306 17.9431C11.3923 17.9431 11.0073 17.7448 11.0073 17.3131H10.0156C10.0156 18.4448 11.0656 18.7481 11.7073 18.7481C12.7223 18.7481 13.469 18.2115 13.469 17.2898C13.469 16.5198 12.944 16.2398 12.6406 16.1231C12.769 16.0648 13.399 15.7498 13.399 15.0498C13.399 14.8048 13.3406 13.6265 11.719 13.6265C10.9956 13.6265 10.0856 14.0348 10.0856 14.9798H11.0773C11.0773 14.5831 11.439 14.4198 11.7423 14.4198C12.4306 14.4198 12.419 15.0031 12.419 15.0498C12.419 15.6565 11.9406 15.7381 11.684 15.7381H11.1473V16.5081H11.6723C12.4306 16.5081 12.489 16.9981 12.489 17.2548C12.489 17.6281 12.244 17.9431 11.7306 17.9431Z" fill="#474752"/>
<path d="M16.1566 13.6263C15.9932 13.6263 14.4766 13.5329 14.4766 15.7496V16.6129C14.4766 18.8296 16.0049 18.7363 16.1566 18.7363C16.3199 18.7363 17.8366 18.8413 17.8366 16.6129V15.7496C17.8482 13.5213 16.3199 13.6263 16.1566 13.6263ZM16.8566 16.7413C16.8566 17.6396 16.6116 17.9429 16.1682 17.9429C15.7249 17.9429 15.4682 17.6396 15.4682 16.7413V15.6096C15.4682 14.7346 15.7249 14.4313 16.1566 14.4313C16.5999 14.4313 16.8566 14.7346 16.8566 15.6096V16.7413Z" fill="#474752"/>
</g>
<defs>
<clipPath id="clip0_3492_22937">
<rect width="28" height="28" fill="white"/>
</clipPath>
</defs>
</svg>
