<svg width="28" height="28" viewBox="0 0 28 28" fill="none" xmlns="http://www.w3.org/2000/svg">
<g clip-path="url(#clip0_3955_23733)">
<path d="M14.0104 5.83317V1.1665L19.8438 6.99984L14.0104 12.8332V8.1665C10.1488 8.1665 7.01042 11.3048 7.01042 15.1665C7.01042 19.0282 10.1488 22.1665 14.0104 22.1665C17.8721 22.1665 21.0104 19.0282 21.0104 15.1665H23.3438C23.3438 20.3232 19.1671 24.4998 14.0104 24.4998C8.85375 24.4998 4.67708 20.3232 4.67708 15.1665C4.67708 10.0098 8.85375 5.83317 14.0104 5.83317Z" fill="#C6C6D4"/>
</g>
<path d="M12.3106 18.0461H11.319V14.2428L10.1406 14.6045V13.7995L12.2056 13.0645H12.3106V18.0461Z" fill="#C6C6D4"/>
<path d="M17.5123 15.9867C17.5123 16.36 17.4773 16.6867 17.3956 16.9433C17.314 17.2 17.1973 17.4333 17.0573 17.6083C16.9173 17.7833 16.7306 17.9117 16.5323 17.9933C16.334 18.075 16.1006 18.11 15.844 18.11C15.5873 18.11 15.3656 18.075 15.1556 17.9933C14.9456 17.9117 14.7706 17.7833 14.619 17.6083C14.4673 17.4333 14.3506 17.2117 14.269 16.9433C14.1873 16.675 14.1406 16.36 14.1406 15.9867V15.1233C14.1406 14.75 14.1756 14.4233 14.2573 14.1667C14.339 13.91 14.4556 13.6767 14.5956 13.5017C14.7356 13.3267 14.9223 13.1983 15.1206 13.1167C15.319 13.035 15.5523 13 15.809 13C16.0656 13 16.2873 13.035 16.4973 13.1167C16.7073 13.1983 16.8823 13.3267 17.034 13.5017C17.1856 13.6767 17.3023 13.8983 17.384 14.1667C17.4656 14.435 17.5123 14.75 17.5123 15.1233V15.9867ZM16.5206 14.9833C16.5206 14.7617 16.509 14.575 16.474 14.4233C16.439 14.2717 16.3923 14.155 16.334 14.0617C16.2756 13.9683 16.2056 13.8983 16.1123 13.8633C16.019 13.8283 15.9256 13.805 15.8206 13.805C15.7156 13.805 15.6106 13.8283 15.529 13.8633C15.4473 13.8983 15.3656 13.9683 15.3073 14.0617C15.249 14.155 15.2023 14.2717 15.1673 14.4233C15.1323 14.575 15.1206 14.7617 15.1206 14.9833V16.115C15.1206 16.3367 15.1323 16.5233 15.1673 16.675C15.2023 16.8267 15.249 16.955 15.3073 17.0483C15.3656 17.1417 15.4356 17.2117 15.529 17.2467C15.6223 17.2817 15.7156 17.305 15.8206 17.305C15.9256 17.305 16.0306 17.2817 16.1123 17.2467C16.194 17.2117 16.2756 17.1417 16.334 17.0483C16.3923 16.955 16.439 16.8267 16.4623 16.675C16.4856 16.5233 16.509 16.3367 16.509 16.115V14.9833H16.5206Z" fill="#C6C6D4"/>
<defs>
<clipPath id="clip0_3955_23733">
<rect width="28" height="28" fill="white" transform="matrix(-1 0 0 1 28 0)"/>
</clipPath>
</defs>
</svg>
