<svg width="20" height="21" viewBox="0 0 20 21" fill="none" xmlns="http://www.w3.org/2000/svg">
<path d="M1 8.99948C0.99993 8.70855 1.06333 8.4211 1.18579 8.1572C1.30824 7.89329 1.4868 7.65928 1.709 7.47148L8.709 1.47248C9.06999 1.16739 9.52736 1 10 1C10.4726 1 10.93 1.16739 11.291 1.47248L18.291 7.47148C18.5132 7.65928 18.6918 7.89329 18.8142 8.1572C18.9367 8.4211 19.0001 8.70855 19 8.99948V17.9995C19 18.5299 18.7893 19.0386 18.4142 19.4137C18.0391 19.7888 17.5304 19.9995 17 19.9995H3C2.46957 19.9995 1.96086 19.7888 1.58579 19.4137C1.21071 19.0386 1 18.5299 1 17.9995V8.99948Z" stroke="#ABB0B9" stroke-width="2" stroke-linecap="round" stroke-linejoin="round"/>
</svg>
