<svg width="26" height="26" viewBox="0 0 26 26" fill="none" xmlns="http://www.w3.org/2000/svg">
<path d="M17.2438 20.4727C16.6511 20.4727 16.144 20.2619 15.7223 19.8402C15.3007 19.4185 15.0895 18.911 15.0888 18.3177V7.5427C15.0888 6.95007 15.2999 6.44293 15.7223 6.02127C16.1447 5.59961 16.6518 5.38842 17.2438 5.3877C17.8357 5.38698 18.3432 5.59817 18.7663 6.02127C19.1894 6.44437 19.4002 6.95151 19.3988 7.5427V18.3177C19.3988 18.9103 19.1879 19.4178 18.7663 19.8402C18.3446 20.2626 17.8371 20.4734 17.2438 20.4727ZM8.62375 20.4727C8.03113 20.4727 7.52398 20.2619 7.10232 19.8402C6.68066 19.4185 6.46947 18.911 6.46875 18.3177V7.5427C6.46875 6.95007 6.67994 6.44293 7.10232 6.02127C7.5247 5.59961 8.03184 5.38842 8.62375 5.3877C9.21566 5.38698 9.72316 5.59817 10.1463 6.02127C10.5694 6.44437 10.7802 6.95151 10.7788 7.5427V18.3177C10.7788 18.9103 10.5679 19.4178 10.1463 19.8402C9.7246 20.2626 9.21709 20.4734 8.62375 20.4727Z" fill="white"/>
</svg>
