<svg width="26" height="26" viewBox="0 0 26 26" fill="none" xmlns="http://www.w3.org/2000/svg">
<g clip-path="url(#clip0_3492_22933)">
<path d="M21.697 11.0877L6.46087 1.96116C6.13501 1.77299 5.76555 1.67342 5.38926 1.67237C5.01297 1.67132 4.64296 1.76881 4.31605 1.95515C3.98913 2.14149 3.71671 2.41019 3.52587 2.7345C3.33504 3.05882 3.23245 3.42745 3.22832 3.80372L3.22831 22.0569C3.23245 22.4332 3.33504 22.8018 3.52587 23.1261C3.7167 23.4504 3.98913 23.7191 4.31604 23.9055C4.64296 24.0918 5.01297 24.1893 5.38926 24.1882C5.76555 24.1872 6.13501 24.0876 6.46087 23.8995L21.697 14.7729C22.0137 14.5808 22.2755 14.3103 22.4572 13.9876C22.6389 13.6648 22.7344 13.3007 22.7344 12.9303C22.7344 12.5599 22.6389 12.1958 22.4572 11.873C22.2755 11.5503 22.0137 11.2798 21.697 11.0877Z" fill="#474752" stroke="#474752" stroke-width="2" stroke-linecap="round" stroke-linejoin="round"/>
</g>
<defs>
<clipPath id="clip0_3492_22933">
<rect width="25.8605" height="25.8605" fill="white" transform="translate(25.8594) rotate(90)"/>
</clipPath>
</defs>
</svg>
