<svg width="12" height="12" viewBox="0 0 12 12" fill="none" xmlns="http://www.w3.org/2000/svg">
<g clip-path="url(#clip0_3880_23619)">
<path d="M9.32031 4.75956L2.77982 0.841746C2.63993 0.760969 2.48133 0.718229 2.3198 0.717777C2.15827 0.717324 1.99943 0.759176 1.85909 0.839168C1.71876 0.91916 1.60181 1.0345 1.51989 1.17372C1.43797 1.31294 1.39394 1.47119 1.39216 1.63271L1.39216 9.46835C1.39393 9.62987 1.43797 9.78811 1.51989 9.92733C1.60181 10.0666 1.71876 10.1819 1.85909 10.2619C1.99943 10.3419 2.15827 10.3837 2.3198 10.3833C2.48133 10.3828 2.63993 10.3401 2.77982 10.2593L9.32031 6.34149C9.45625 6.25903 9.56864 6.14293 9.64664 6.00438C9.72465 5.86584 9.76562 5.70952 9.76562 5.55053C9.76562 5.39153 9.72465 5.23522 9.64664 5.09667C9.56864 4.95813 9.45625 4.84202 9.32031 4.75956Z" fill="white"/>
</g>
<defs>
<clipPath id="clip0_3880_23619">
<rect width="11.1013" height="11.1013" fill="white" transform="translate(11.1016) rotate(90)"/>
</clipPath>
</defs>
</svg>
