<svg width="22" height="22" viewBox="0 0 22 22" fill="none" xmlns="http://www.w3.org/2000/svg">
<path d="M13.5358 20.6885C13.5738 20.7832 13.6398 20.864 13.7251 20.92C13.8103 20.9761 13.9107 21.0048 14.0126 21.0021C14.1146 20.9995 14.2134 20.9658 14.2956 20.9054C14.3779 20.8451 14.4397 20.761 14.4728 20.6645L20.9728 1.6645C21.0048 1.57589 21.0109 1.48 20.9904 1.38805C20.9699 1.2961 20.9236 1.21189 20.857 1.14528C20.7904 1.07866 20.7062 1.03239 20.6143 1.01189C20.5223 0.991386 20.4264 0.997494 20.3378 1.0295L1.33781 7.5295C1.2413 7.56259 1.15723 7.62442 1.09688 7.70667C1.03652 7.78892 1.00278 7.88767 1.00016 7.98966C0.997552 8.09164 1.0262 8.19199 1.08226 8.27722C1.13833 8.36246 1.21912 8.42851 1.31381 8.4665L9.24381 11.6465C9.49449 11.7469 9.72226 11.897 9.91337 12.0877C10.1045 12.2785 10.255 12.506 10.3558 12.7565L13.5358 20.6885Z" stroke="#ABB0B9" stroke-width="2" stroke-linecap="round" stroke-linejoin="round"/>
</svg>
