<svg width="16" height="16" viewBox="0 0 16 16" fill="none" xmlns="http://www.w3.org/2000/svg">
<g opacity="0.7">
<path d="M0 8C0 3.58172 3.58172 0 8 0V0C12.4183 0 16 3.58172 16 8V8C16 12.4183 12.4183 16 8 16V16C3.58172 16 0 12.4183 0 8V8Z" fill="black"/>
<g clip-path="url(#clip0_3953_23710)">
<path d="M8.85048 11.2284C8.86314 11.2599 8.88516 11.2869 8.91357 11.3055C8.94198 11.3242 8.97543 11.3338 9.00942 11.3329C9.04342 11.332 9.07634 11.3208 9.10375 11.3007C9.13117 11.2806 9.15178 11.2525 9.16281 11.2204L11.3295 4.88703C11.3401 4.85749 11.3422 4.82553 11.3353 4.79488C11.3285 4.76423 11.3131 4.73616 11.2909 4.71395C11.2687 4.69175 11.2406 4.67632 11.21 4.66949C11.1793 4.66266 11.1473 4.66469 11.1178 4.67536L4.78448 6.84203C4.75231 6.85306 4.72429 6.87367 4.70417 6.90108C4.68405 6.9285 4.6728 6.96142 4.67193 6.99541C4.67106 7.02941 4.68061 7.06286 4.6993 7.09127C4.71798 7.11968 4.74492 7.1417 4.77648 7.15436L7.41981 8.21436C7.50337 8.24782 7.57929 8.29785 7.643 8.36144C7.7067 8.42503 7.75687 8.50086 7.79048 8.58436L8.85048 11.2284Z" stroke="white" stroke-width="0.666667" stroke-linecap="round" stroke-linejoin="round"/>
<path d="M11.2795 4.71533L7.63281 8.36167" stroke="white" stroke-width="0.666667" stroke-linecap="round" stroke-linejoin="round"/>
</g>
</g>
<defs>
<clipPath id="clip0_3953_23710">
<rect width="8" height="8" fill="white" transform="translate(4 4)"/>
</clipPath>
</defs>
</svg>
