<svg width="28" height="28" viewBox="0 0 28 28" fill="none" xmlns="http://www.w3.org/2000/svg">
<g clip-path="url(#clip0_3821_24881)">
<path d="M13.9896 5.83317V1.1665L8.15625 6.99984L13.9896 12.8332V8.1665C17.8512 8.1665 20.9896 11.3048 20.9896 15.1665C20.9896 19.0282 17.8512 22.1665 13.9896 22.1665C10.1279 22.1665 6.98958 19.0282 6.98958 15.1665H4.65625C4.65625 20.3232 8.83292 24.4998 13.9896 24.4998C19.1462 24.4998 23.3229 20.3232 23.3229 15.1665C23.3229 10.0098 19.1462 5.83317 13.9896 5.83317Z" fill="#C6C6D4"/>
<path d="M12.7091 18.6662H11.7174V14.8629L10.5391 15.2246V14.4196L12.6041 13.6846H12.7091V18.6662Z" fill="#C6C6D4"/>
<path d="M17.6998 16.6131C17.6998 16.9865 17.6648 17.3131 17.5831 17.5698C17.5015 17.8265 17.3848 18.0598 17.2448 18.2348C17.1048 18.4098 16.9181 18.5381 16.7198 18.6198C16.5215 18.7015 16.2881 18.7365 16.0315 18.7365C15.7748 18.7365 15.5531 18.7015 15.3431 18.6198C15.1331 18.5381 14.9581 18.4098 14.8065 18.2348C14.6548 18.0598 14.5381 17.8381 14.4565 17.5698C14.3748 17.3015 14.3281 16.9865 14.3281 16.6131V15.7498C14.3281 15.3765 14.3631 15.0498 14.4448 14.7931C14.5265 14.5365 14.6431 14.3031 14.7831 14.1281C14.9231 13.9531 15.1098 13.8248 15.3081 13.7431C15.5065 13.6615 15.7398 13.6265 15.9965 13.6265C16.2531 13.6265 16.4748 13.6615 16.6848 13.7431C16.8948 13.8248 17.0698 13.9531 17.2215 14.1281C17.3731 14.3031 17.4898 14.5248 17.5715 14.7931C17.6531 15.0615 17.6998 15.3765 17.6998 15.7498V16.6131ZM16.7081 15.6098C16.7081 15.3881 16.6965 15.2015 16.6615 15.0498C16.6265 14.8981 16.5798 14.7815 16.5215 14.6881C16.4631 14.5948 16.3931 14.5248 16.2998 14.4898C16.2065 14.4548 16.1131 14.4315 16.0081 14.4315C15.9031 14.4315 15.7981 14.4548 15.7165 14.4898C15.6348 14.5248 15.5531 14.5948 15.4948 14.6881C15.4365 14.7815 15.3898 14.8981 15.3548 15.0498C15.3198 15.2015 15.3081 15.3881 15.3081 15.6098V16.7415C15.3081 16.9631 15.3198 17.1498 15.3548 17.3015C15.3898 17.4531 15.4365 17.5815 15.4948 17.6748C15.5531 17.7681 15.6231 17.8381 15.7165 17.8731C15.8098 17.9081 15.9031 17.9315 16.0081 17.9315C16.1131 17.9315 16.2181 17.9081 16.2998 17.8731C16.3815 17.8381 16.4631 17.7681 16.5215 17.6748C16.5798 17.5815 16.6265 17.4531 16.6498 17.3015C16.6731 17.1498 16.6965 16.9631 16.6965 16.7415V15.6098H16.7081Z" fill="#C6C6D4"/>
</g>
<defs>
<clipPath id="clip0_3821_24881">
<rect width="28" height="28" fill="white"/>
</clipPath>
</defs>
</svg>
